{"title":"The.Family.2013.BRRip.AAC.x264-SSDD","uid":9290998,"size":1542649567,"categoryP":"video","categoryS":"hd___movies","magnet":"?xt=urn:btih:015f62e0ae2ce1ecdfdd64f08ab8218235d21002&amp;dn=The.Family.2013.BRRip.AAC.x264-SSDD&amp;tr=udp%3A%2F%2Ftracker.openbittorrent.com%3A80&amp;tr=udp%3A%2F%2Fopen.demonii.com%3A1337&amp;tr=udp%3A%2F%2Ftracker.coppersurfer.tk%3A6969&amp;tr=udp%3A%2F%2Fexodus.desync.com%3A6969","seeders":1,"leechers":0,"uploader":"Thhaque","files":2,"time":1386090588,"description":"IMDB Link - http://www.imdb.com/title/tt2404311/\n\nSource - The.Family.2013.720p.BluRay.x264-MARKED\n\nPlot - The Manzoni family, a notorious mafia clan, is relocated to Normandy, France under the witness protection program, where fitting in soon becomes challenging as their old habits die hard\n\nNOTES - Enjoy \n\nGeneral\nComplete name: The Family 2013 BRRip AAC x264-SSDD.mp4\nFormat: MPEG-4\nFormat profile: Base Media\nCodec ID: isom\nFile size: 1.44 GiB\nDuration: 1h 46mn\nOverall bit rate mode: Variable\nOverall bit rate: 1 923 Kbps\n\nVideo\nID: 1\nFormat: AVC\nFormat/Info: Advanced Video Codec\nFormat profile: &lt;a class=&quot;__cf_email__&quot; href=&quot;/cdn-cgi/l/email-protection&quot; data-cfemail=&quot;e8a0818f80a8a4dcc6d9&quot;&gt;[email&amp;#160;protected]&lt;/a&gt;&lt;script cf-hash='f9e31' type=&quot;text/javascript&quot;&gt;\n/* &lt;![CDATA[ */!function(){try{var t=&quot;currentScript&quot;in document?document.currentScript:function(){for(var t=document.getElementsByTagName(&quot;script&quot;),e=t.length;e--;)if(t[e].getAttribute(&quot;cf-hash&quot;))return t[e]}();if(t&amp;&amp;t.previousSibling){var e,r,n,i,c=t.previousSibling,a=c.getAttribute(&quot;data-cfemail&quot;);if(a){for(e=&quot;&quot;,r=parseInt(a.substr(0,2),16),n=2;a.length-n;n+=2)i=parseInt(a.substr(n,2),16)^r,e+=String.fromCharCode(i);e=document.createTextNode(e),c.parentNode.replaceChild(e,c)}}}catch(u){}}();/* ]]&gt; */&lt;/script&gt;\nFormat settings, CABAC: Yes\nFormat settings, ReFrames: 3 frames\nCodec ID: avc1\nCodec ID/Info: Advanced Video Coding\nDuration: 1h 46mn\nBit rate mode: Variable\nBit rate: 1 785 Kbps\nMaximum bit rate: 40.0 Mbps\nWidth: 720 pixels\nHeight: 304 pixels\nDisplay aspect ratio: 2.35:1\nFrame rate mode: Constant\nFrame rate: 25.000 fps\nColor space: YUV\nChroma subsampling: 4:2:0\nBit depth: 8 bits\nScan type: Progressive\nBits/(Pixel*Frame): 0.326\nStream size: 1.33 GiB (93%)\nWriting library: x264 core 140 r2377 1ca7bb9\n\nAudio\nID: 2\nFormat: AAC\nFormat/Info: Advanced Audio Codec\nFormat profile: LC\nCodec ID: 40\nDuration: 1h 46mn\nBit rate mode: Variable\nBit rate: 132 Kbps\nMaximum bit rate: 168 Kbps\nChannel count: 2 channels\nChannel positions: Front: L R\nSampling rate: 48.0 KHz\nCompression mode: Lossy\nStream size: 103 MiB (7%) \n\nScreens: &lt;a href=&quot;\nhttp://lookpic.com/O/i2/1298/VDo7CBBo.png&quot; rel=&quot;nofollow&quot; target=&quot;_NEW&quot;&gt;\nhttp://lookpic.com/O/i2/1298/VDo7CBBo.png&lt;/a&gt; &lt;a href=&quot;\nhttp://lookpic.com/O/i2/434/fWU1ntiF.png&quot; rel=&quot;nofollow&quot; target=&quot;_NEW&quot;&gt;\nhttp://lookpic.com/O/i2/434/fWU1ntiF.png&lt;/a&gt; &lt;a href=&quot;\nhttp://lookpic.com/O/i2/632/24TZ3jQr.png&quot; rel=&quot;nofollow&quot; target=&quot;_NEW&quot;&gt;\nhttp://lookpic.com/O/i2/632/24TZ3jQr.png&lt;/a&gt; &lt;a href=&quot;\nhttp://lookpic.com/O/i2/1676/QSBuKU5.png&quot; rel=&quot;nofollow&quot; target=&quot;_NEW&quot;&gt;\nhttp://lookpic.com/O/i2/1676/QSBuKU5.png&lt;/a&gt;","torrent":{"xt":"urn:btih:015f62e0ae2ce1ecdfdd64f08ab8218235d21002","amp;dn":"The.Family.2013.BRRip.AAC.x264-SSDD","amp;tr":["udp%3A%2F%2Ftracker.openbittorrent.com%3A80","udp%3A%2F%2Fopen.demonii.com%3A1337","udp%3A%2F%2Ftracker.coppersurfer.tk%3A6969","udp%3A%2F%2Fexodus.desync.com%3A6969"],"infoHash":"015f62e0ae2ce1ecdfdd64f08ab8218235d21002","infoHashBuffer":{"type":"Buffer","data":[1,95,98,224,174,44,225,236,223,221,100,240,138,184,33,130,53,210,16,2]},"announce":[],"urlList":[]}}